<svg xmlns="http://www.w3.org/2000/svg" xmlns:svg="http://www.w3.org/2000/svg" id="svg5" width="300mm" height="300mm" version="1.1" viewBox="0 0 300 300"><g id="layer1"><g id="g412"><g id="text186" aria-label="R" transform="matrix(-1,0,0,1,-412.83219,447.56648)" style="font-size:256.262px;line-height:1.25;font-family:'PP Supply Mono';-inkscape-font-specification:'PP Supply Mono';stroke-width:6.40656"><path id="path464" d="m -50.832907,66.442303 c 25.626095,0 46.127417,20.500816 46.127417,46.126897 v 15.37581 c 0,19.34426 -11.659738,35.71834 -28.421521,42.57311 l -10.623641,-23.2761 c 7.920664,-2.81251 13.418819,-10.26882 13.418819,-19.29701 V 112.5692 c 0,-11.53175 -8.969332,-20.500554 -20.501074,-20.500554 h -18.09967 l -8.987566,-19.691822 -2.708361,-5.934521 z m -35.747172,0 3.734656,8.182446 7.961788,17.443897 h -16.950904 v 56.377434 h 8.74727 l 11.696444,25.62635 h -20.443714 v 71.75324 H -117.46088 V 66.442303 Z m 37.396684,81.935567 0.507462,1.11208 10.400916,22.78827 c -3.67e-4,1e-4 -6.67e-4,4.2e-4 -0.001,5.2e-4 l 33.570561,73.54693 h -28.188977 l -15.548405,-34.28008 0.08785,-0.0403 -17.084745,-37.43285 -11.695927,-25.62635 h 26.302787 c 0.556757,0 1.10542,-0.0271 1.649512,-0.0682 z"/></g><g id="text190" aria-label="M" style="font-size:256.262px;line-height:1.25;font-family:'PP Supply Mono';-inkscape-font-specification:'PP Supply Mono';fill:#000;stroke-width:6.40656" transform="translate(-412.83196,447.56534)"><path id="path519" style="fill:#000" d="M 91.834309,66.443444 V 245.82681 H 117.46065 V 139.73303 122.82088 66.443444 Z m 87.129051,0 -27.76058,60.379776 12.81575,27.81639 14.94483,-31.81873 v 64.25654 l 21.39869,46.44678 4.22765,9.17619 V 66.443444 Z m -56.08857,11.775509 v 56.129387 l 18.418,39.2126 h 13.83843 l 5.87768,-12.51448 -12.78372,-27.74715 -0.0129,0.0284 -12.66847,-27.55439 z m 56.08857,121.797737 v 45.81012 h 21.10569 l -4.62453,-10.03711 z"/></g><g id="text186-4" aria-label="R" transform="matrix(-1,0,0,1,-474.3349,268.18311)" style="font-size:256.262px;line-height:1.25;font-family:'PP Supply Mono';-inkscape-font-specification:'PP Supply Mono';stroke-width:6.40656"><path id="path464-6" d="m -50.832907,66.442303 c 25.626095,0 46.127417,20.500816 46.127417,46.126897 v 15.37581 c 0,19.34426 -11.659738,35.71834 -28.421521,42.57311 l -10.623641,-23.2761 c 7.920664,-2.81251 13.418819,-10.26882 13.418819,-19.29701 V 112.5692 c 0,-11.53175 -8.969332,-20.500554 -20.501074,-20.500554 h -18.09967 l -8.987566,-19.691822 -2.708361,-5.934521 z m -35.747172,0 3.734656,8.182446 7.961788,17.443897 h -16.950904 v 56.377434 h 8.74727 l 11.696444,25.62635 h -20.443714 v 71.75324 H -117.46088 V 66.442303 Z m 37.396684,81.935567 0.507462,1.11208 10.400916,22.78827 c -3.67e-4,1e-4 -6.67e-4,4.2e-4 -0.001,5.2e-4 l 33.570561,73.54693 h -28.188977 l -15.548405,-34.28008 0.08785,-0.0403 -17.084745,-37.43285 -11.695927,-25.62635 h 26.302787 c 0.556757,0 1.10542,-0.0271 1.649512,-0.0682 z"/></g><g id="text190-6" aria-label="M" style="font-size:256.262px;line-height:1.25;font-family:'PP Supply Mono';-inkscape-font-specification:'PP Supply Mono';fill:#000;stroke-width:6.40656" transform="translate(-474.33467,268.18197)"><path id="path519-4" style="fill:#000" d="M 91.834309,66.443444 V 245.82681 H 117.46065 V 139.73303 122.82088 66.443444 Z m 87.129051,0 -27.76058,60.379776 12.81575,27.81639 14.94483,-31.81873 V 245.82681 H 204.5897 V 66.443444 Z m -56.08857,11.775509 v 56.129387 l 18.418,39.2126 h 13.83843 l 5.87768,-12.51448 -12.78372,-27.74715 -0.0129,0.0284 -12.66847,-27.55439 z"/></g><g id="text186-5" aria-label="R" transform="matrix(-1.3270638,0,0,1.3270638,7.4187446,-66.049756)" style="font-size:256.262px;line-height:1.25;font-family:'PP Supply Mono';-inkscape-font-specification:'PP Supply Mono';stroke-width:6.40656"><path id="path1332" d="m -55.404467,76.074732 c 24.779337,0 44.603278,19.823457 44.603278,44.602778 v 14.86777 c 0,18.70508 -11.274495,34.53815 -27.482424,41.16642 l -10.272615,-22.50702 c 7.658947,-2.71956 12.975437,-9.92952 12.975437,-18.6594 v -14.86777 c 0,-11.15069 -8.672976,-19.82318 -19.823676,-19.82318 h -17.501624 l -8.690605,-19.041164 -2.61887,-5.738434 z m -34.566029,0 3.611261,7.912083 7.698717,16.867515 h -16.390824 v 54.51463 h 8.458248 l 11.309978,24.77961 h -19.768226 v 69.38238 H -119.83094 V 146.9427 130.58935 76.074732 h 24.779598 z m -89.330984,0 29.73502,64.674298 24.50027,-53.287874 v 54.274774 l -17.80944,37.91695 h -13.38119 l -23.04466,-49.06353 v 118.9416 H -204.0811 V 76.074732 Z m 125.492019,79.228268 0.490693,1.07534 10.057254,22.0353 c -3.57e-4,1e-4 -6.77e-4,4.1e-4 -9.98e-4,5.1e-4 l 32.461324,71.1168 h -27.257591 l -15.034661,-33.1474 0.085,-0.0389 -16.520229,-36.19599 -11.309475,-24.77961 h 25.433698 c 0.538353,0 1.068894,-0.0262 1.595007,-0.066 z" style="stroke-width:6.19488;fill:#e7233a;fill-opacity:1"/></g><g id="text186-5-2" aria-label="R" transform="matrix(-1,0,0,1,-376.25081,-522.1903)" style="font-size:256.262px;line-height:1.25;font-family:'PP Supply Mono';-inkscape-font-specification:'PP Supply Mono';stroke-width:6.40656"><path id="path464-0-9" d="m -50.833009,66.442473 c 25.62607,0 46.1274174,20.500845 46.1274174,46.126897 v 15.37581 c 0,19.34424 -11.6597544,35.71835 -28.4215214,42.57311 l -10.623641,-23.2761 c 7.920657,-2.8125 13.41882,-10.26883 13.41882,-19.29701 v -15.37581 c 0,-11.53173 -8.969344,-20.500554 -20.501075,-20.500554 h -18.09967 l -8.987565,-19.691821 -2.708362,-5.934522 z m -35.747172,0 3.734656,8.182447 7.961788,17.443896 H -91.83464 v 24.170614 l -8.79998,-19.280473 -13.92783,-30.516484 z m -30.880799,6.690548 11.90056,26.073861 13.72578,30.073098 v 19.16627 h 8.747269 l 11.696444,25.62635 H -91.83464 v 71.75324 h -25.62634 z m 68.277483,75.245019 0.507463,1.11208 10.400915,22.78827 c -3.67e-4,1e-4 -7e-4,4.2e-4 -0.001,5.2e-4 l 33.5705604,73.54693 H -32.894569 l -15.548405,-34.28008 0.08785,-0.0403 -17.084745,-37.43285 -1.025777,-2.24793 5.17e-4,-5.2e-4 -10.67015,-23.3779 h 26.30227 c 0.556757,0 1.105421,-0.0271 1.649512,-0.0682 z"/></g><g id="text190-29-7" aria-label="M" style="font-size:256.262px;line-height:1.25;font-family:'PP Supply Mono';-inkscape-font-specification:'PP Supply Mono';fill:#000;stroke-width:6.40656" transform="translate(-376.25058,-522.19144)"><path id="path519-0-5" style="fill:#000" d="m 91.83441,66.443613 v 49.796957 l 8.79998,-19.280473 13.92783,-30.516484 z m 87.12905,0 -30.7511,66.884287 -25.33747,-55.108778 v 56.129388 l 18.418,39.2126 h 13.83843 l 23.83214,-50.74006 V 245.82698 H 204.5898 V 66.443613 Z m -61.50271,6.690548 -11.90056,26.073861 -13.72578,30.073098 v 116.54586 h 25.62634 V 139.7332 122.82105 Z"/></g><g id="text186-06" aria-label="R" transform="matrix(-1,0,0,1,-400.24779,-233.21452)" style="font-size:256.262px;line-height:1.25;font-family:'PP Supply Mono';-inkscape-font-specification:'PP Supply Mono';stroke-width:6.40656"><path id="path464-7" d="m -50.832907,66.442303 c 25.626147,0 46.127417,20.500758 46.127417,46.126897 v 15.37581 c 0,19.3443 -11.659704,35.71832 -28.421521,42.57311 l -10.623641,-23.2761 c 7.92068,-2.81253 13.418819,-10.2688 13.418819,-19.29701 V 112.5692 c 0,-11.53177 -8.969308,-20.500554 -20.501074,-20.500554 h -41.001632 v 56.377434 h 8.74727 l 11.696444,25.62635 h -20.443714 v 71.75324 H -117.46088 V 66.442303 Z m 1.649512,81.935567 10.908378,23.90035 c -3.67e-4,1e-4 -6.67e-4,4.2e-4 -0.001,5.2e-4 l 33.570561,73.54693 h -28.188977 l -15.548405,-34.28008 0.08785,-0.0403 -17.084745,-37.43285 -11.695927,-25.62635 h 26.302787 c 0.556759,0 1.10542,-0.0271 1.649512,-0.0682 z"/></g><g id="text190-2" aria-label="M" style="font-size:256.262px;line-height:1.25;font-family:'PP Supply Mono';-inkscape-font-specification:'PP Supply Mono';fill:#000;stroke-width:6.40656" transform="translate(-400.24756,-233.21566)"><path id="path519-5" style="fill:#000" d="M 91.834309,66.443444 V 245.82681 H 117.46065 V 139.73303 122.82088 66.443444 Z m 87.129051,0 -30.7511,66.884286 -25.33747,-55.108777 v 56.129387 l 18.418,39.2126 h 13.83843 l 23.83214,-50.74006 V 245.82681 H 204.5897 V 66.443444 Z"/></g><g id="text186-0" aria-label="R" transform="matrix(-1,0,0,1,401.98835,-247.83604)" style="font-size:256.262px;line-height:1.25;font-family:'PP Supply Mono';-inkscape-font-specification:'PP Supply Mono';stroke-width:6.40656"><path id="path464-2" d="M -4.7056012,245.8257 -38.275922,172.27851 c 19.475911,-5.38151 33.5703208,-23.06358 33.5703208,-44.33333 v -15.37572 c 0,-25.626197 -20.5009598,-46.127157 -46.1271588,-46.127157 h -66.62812 V 245.8257 h 25.626201 v -71.75336 h 26.394985 L -32.89442,245.8257 Z M -91.834679,148.44614 V 92.068503 h 41.001919 c 11.53179,0 20.500959,8.969167 20.500959,20.500957 v 15.37572 c 0,11.53179 -8.969169,20.50096 -20.500959,20.50096 z"/></g><g id="text190-1" aria-label="M" style="font-size:256.262px;line-height:1.25;font-family:'PP Supply Mono';-inkscape-font-specification:'PP Supply Mono';fill:#000;stroke-width:6.40656" transform="translate(401.98858,-247.83718)"><path id="path519-9" style="fill:#000" d="M 91.834309,66.443444 V 245.82681 H 117.46065 V 139.73303 122.82088 66.443444 Z m 87.129051,0 -30.7511,66.884286 -25.33747,-55.108777 v 56.129387 l 18.418,39.2126 h 13.83843 l 23.83214,-50.74006 V 245.82681 H 204.5897 V 66.443444 Z"/></g><rect style="fill:#00f;fill-rule:evenodd;stroke-width:.264583" id="rect573-3-7-48" width="5.414" height="82.295" x="363.733" y="-311.692" transform="rotate(24.5325)"/><rect style="fill:#00f;fill-rule:evenodd;stroke-width:.264583" id="rect573-3-7-4-0" width="5.414" height="82.295" x="405.521" y="-266.239" transform="rotate(24.5325)"/><rect style="fill:#00f;fill-rule:evenodd;stroke-width:.264583" id="rect573-3-7-4-0-2" width="5.414" height="82.295" x="115.983" y="-120.351" transform="rotate(162.01146)"/><path id="path1245" style="fill:#00f;fill-rule:evenodd;stroke-width:.264583" d="m 398.61377,35.267492 -4.91754,2.265491 9.86917,21.420915 24.56646,53.322332 9.86916,21.42091 4.91753,-2.2655 -9.86916,-21.42091 -24.56646,-53.322324 z"/></g></g></svg>