<svg xmlns="http://www.w3.org/2000/svg" width="900" height="303" version="1.1"><path id="svg_4" fill="#8a115c" d="m0,130l18.8,7.5c18.9,7.5 56.5,22.5 94,21.2c37.5,-1.4 74.9,-19 112.4,-23.7c37.5,-4.7 75.1,3.7 112.6,11.7c37.5,8 74.9,15.6 112.4,9.8c37.5,-5.8 75.1,-25.2 112.6,-33.5c37.5,-8.3 74.9,-5.7 112.4,1.5c37.5,7.2 75.1,18.8 112.6,19.7c37.5,0.8 74.9,-9.2 93.5,-14.2l18.7,-5l0,178l-18.7,0c-18.6,0 -56,0 -93.5,0c-37.5,0 -75.1,0 -112.6,0c-37.5,0 -74.9,0 -112.4,0c-37.5,0 -75.1,0 -112.6,0c-37.5,0 -74.9,0 -112.4,0c-37.5,0 -75.1,0 -112.6,0c-37.5,0 -74.9,0 -112.4,0c-37.5,0 -75.1,0 -94,0l-18.8,0l0,-173z"/></svg>