<svg xmlns="http://www.w3.org/2000/svg" width="900" height="303" version="1.1"><path id="svg_3" fill="#be0053" d="m0,69l18.8,-0.5c18.9,-0.5 56.5,-1.5 94,11.2c37.5,12.6 74.9,39 112.4,47.6c37.5,8.7 75.1,-0.3 112.6,-14.8c37.5,-14.5 74.9,-34.5 112.4,-46.3c37.5,-11.9 75.1,-15.5 112.6,-9.5c37.5,6 74.9,21.6 112.4,33.6c37.5,12 75.1,20.4 112.6,14.2c37.5,-6.2 74.9,-26.8 93.5,-37.2l18.7,-10.3l0,246l-18.7,0c-18.6,0 -56,0 -93.5,0c-37.5,0 -75.1,0 -112.6,0c-37.5,0 -74.9,0 -112.4,0c-37.5,0 -75.1,0 -112.6,0c-37.5,0 -74.9,0 -112.4,0c-37.5,0 -75.1,0 -112.6,0c-37.5,0 -74.9,0 -112.4,0c-37.5,0 -75.1,0 -94,0l-18.8,0l0,-234z"/></svg>