<svg width="900" height="303" xmlns="http://www.w3.org/2000/svg" version="1.1">
  <path id="svg_5" fill="#541b54" d="m0,204l18.8,-7.3c18.9,-7.4 56.5,-22 94,-23.9c37.5,-1.8 74.9,9.2 112.4,15.7c37.5,6.5 75.1,8.5 112.6,4.8c37.5,-3.6 74.9,-13 112.4,-23c37.5,-10 75.1,-20.6 112.6,-17.3c37.5,3.3 74.9,20.7 112.4,22.8c37.5,2.2 75.1,-10.8 112.6,-17.5c37.5,-6.6 74.9,-7 93.5,-7.1l18.7,-0.2l0,152l-18.7,0c-18.6,0 -56,0 -93.5,0c-37.5,0 -75.1,0 -112.6,0c-37.5,0 -74.9,0 -112.4,0c-37.5,0 -75.1,0 -112.6,0c-37.5,0 -74.9,0 -112.4,0c-37.5,0 -75.1,0 -112.6,0c-37.5,0 -74.9,0 -112.4,0c-37.5,0 -75.1,0 -94,0l-18.8,0l0,-99z"/>
</svg>
