<svg width="900" height="303" xmlns="http://www.w3.org/2000/svg" version="1.1">
  <path id="svg_2" fill="#e7233a" d="m0,0l18.8,3.2c18.9,3.1 56.5,9.5 94,9.5c37.5,0 74.9,-6.4 112.4,-9.5c37.5,-3.2 75.1,-3.2 112.6,9.5c37.5,12.6 74.9,38 112.4,47c37.5,9 75.1,1.6 112.6,-7c37.5,-8.7 74.9,-18.7 112.4,-22c37.5,-3.4 75.1,0 112.6,11c37.5,11 74.9,29.6 93.5,39l18.7,9.3l0,213l-18.7,0c-18.6,0 -56,0 -93.5,0c-37.5,0 -75.1,0 -112.6,0c-37.5,0 -74.9,0 -112.4,0c-37.5,0 -75.1,0 -112.6,0c-37.5,0 -74.9,0 -112.4,0c-37.5,0 -75.1,0 -112.6,0c-37.5,0 -74.9,0 -112.4,0c-37.5,0 -75.1,0 -94,0l-18.8,0l0,-303z"/>
</svg>
