<svg width="900" height="303" xmlns="http://www.w3.org/2000/svg" version="1.1">
  <path id="svg_6" fill="#24173e" d="m0,186l18.8,6.8c18.9,6.9 56.5,20.5 94,23.7c37.5,3.2 74.9,-4.2 112.4,-11.2c37.5,-7 75.1,-13.6 112.6,-14c37.5,-0.3 74.9,5.7 112.4,11.2c37.5,5.5 75.1,10.5 112.6,15.3c37.5,4.9 74.9,9.5 112.4,13.4c37.5,3.8 75.1,6.8 112.6,7.3c37.5,0.5 74.9,-1.5 93.5,-2.5l18.7,-1l0,68l-18.7,0c-18.6,0 -56,0 -93.5,0c-37.5,0 -75.1,0 -112.6,0c-37.5,0 -74.9,0 -112.4,0c-37.5,0 -75.1,0 -112.6,0c-37.5,0 -74.9,0 -112.4,0c-37.5,0 -75.1,0 -112.6,0c-37.5,0 -74.9,0 -112.4,0c-37.5,0 -75.1,0 -94,0l-18.8,0l0,-117z"/>
</svg>
